# xmcd CD database file
#
# Track frame offsets:
#	150
#	14639
#	28797
#	47149
#	68081
#	81369
#	95904
#	111926
#	128689
#	144149
#	158844
#	178807
#	204939
#
# Disc length: 3042 seconds
#
# Revision: 0
# Processed by: cddbd v1.5.2PL0 Copyright (c) Steve Scherf et al.
# Submitted via: CDex 2.23
#
DISCID=b30be00d
DTITLE=Lucy Hale - Road Between Walmart Edition
DYEAR=2014
DGENRE=Country
TTITLE0=You Sound Good to Me
TTITLE1=From the Backseat
TTITLE2=Nervous Girls
TTITLE3=Red Dress (Feat. Joe Nichols)
TTITLE4=Goodbye Gone
TTITLE5=Kiss Me
TTITLE6=Road Between
TTITLE7=Lie A Little Better
TTITLE8=That's What I Call Crazy
TTITLE9=Love Tonight
TTITLE10=Just Another Song
TTITLE11=Come On
TTITLE12=data track
EXTD=YEAR: 2014
EXTT0=
EXTT1=
EXTT2=
EXTT3=
EXTT4=
EXTT5=
EXTT6=
EXTT7=
EXTT8=
EXTT9=
EXTT10=
EXTT11=
EXTT12=
PLAYORDER=
